<?xml version="1.0" encoding="UTF-8" standalone="no"?>
<svg
   xmlns:dc="http://purl.org/dc/elements/1.1/"
   xmlns:cc="http://creativecommons.org/ns#"
   xmlns:rdf="http://www.w3.org/1999/02/22-rdf-syntax-ns#"
   xmlns:svg="http://www.w3.org/2000/svg"
   xmlns="http://www.w3.org/2000/svg"
   xmlns:sodipodi="http://sodipodi.sourceforge.net/DTD/sodipodi-0.dtd"
   xmlns:inkscape="http://www.inkscape.org/namespaces/inkscape"
   width="52.723007"
   height="39.305"
   viewBox="0 0 52.723007 39.305"
   version="1.1"
   xml:space="preserve"
   style="clip-rule:evenodd;fill-rule:evenodd;stroke-linejoin:round;stroke-miterlimit:1.41420996"
   id="svg236"
   sodipodi:docname="logo_evs_rounded.svg"
   inkscape:version="0.92.3 (2405546, 2018-03-11)"><metadata
     id="metadata242"><rdf:RDF><cc:Work
         rdf:about=""><dc:format>image/svg+xml</dc:format><dc:type
           rdf:resource="http://purl.org/dc/dcmitype/StillImage" /><dc:title></dc:title></cc:Work></rdf:RDF></metadata><defs
     id="defs240" /><sodipodi:namedview
     pagecolor="#ffffff"
     bordercolor="#666666"
     borderopacity="1"
     objecttolerance="10"
     gridtolerance="10"
     guidetolerance="10"
     inkscape:pageopacity="0"
     inkscape:pageshadow="2"
     inkscape:window-width="1920"
     inkscape:window-height="1017"
     id="namedview238"
     showgrid="false"
     fit-margin-top="0"
     fit-margin-left="0"
     fit-margin-right="0"
     fit-margin-bottom="0"
     inkscape:zoom="2.0194175"
     inkscape:cx="122.00246"
     inkscape:cy="-73.241847"
     inkscape:window-x="-8"
     inkscape:window-y="-8"
     inkscape:window-maximized="1"
     inkscape:current-layer="svg236" /><path
     d="m 20.78901,26.080999 c -6.567,0 -11.888,-5.323 -11.888,-11.886999 0,-6.565 5.321,-11.887 11.888,-11.887 6.561997,0 11.884997,5.322 11.884997,11.887 0,6.563999 -5.323,11.886999 -11.884997,11.886999 z M 20.78901,0 C 12.94901,0 6.594,6.356 6.594,14.194 c 0,7.836999 6.35501,14.192999 14.19501,14.192999 7.836997,0 14.191997,-6.356 14.191997,-14.192999 C 34.981007,6.356 28.626007,0 20.78901,0 Z"
     style="fill:#ec008c"
     id="path216"
     inkscape:connector-curvature="0" /><path
     d="m 52.723007,14.195 v -10e-4 h -1.006 c 0,8.541999 -3.462,16.274999 -9.06,21.872999 0.263,0.262 0.501,0.502 0.711,0.711 5.779,-5.779 9.355,-13.762 9.355,-22.582999 z"
     style="fill:#231f20"
     id="path218"
     inkscape:connector-curvature="0" /><path
     d="m 46.331007,14.194 c 0,11.168999 -7.174,20.657999 -17.161,24.128999 l 0.34,0.982 c 10.395,-3.611 17.86,-13.486 17.86,-25.109999 v -10e-4 z"
     style="fill:#231f20"
     id="path220"
     inkscape:connector-curvature="0" /><path
     d="m 39.443007,14.194 c 0,10.301999 -8.353,18.657999 -18.653997,18.657999 -10.306,0 -18.65801,-8.356 -18.65801,-18.657999 H 0 c 0,11.481999 9.30601,20.788999 20.78901,20.788999 11.478997,0 20.787997,-9.307 20.787997,-20.788999 z"
     style="fill:#ec008c"
     id="path222"
     inkscape:connector-curvature="0" /></svg>