<?xml version="1.0" encoding="UTF-8" standalone="no"?>
<svg
   xmlns:dc="http://purl.org/dc/elements/1.1/"
   xmlns:cc="http://creativecommons.org/ns#"
   xmlns:rdf="http://www.w3.org/1999/02/22-rdf-syntax-ns#"
   xmlns:svg="http://www.w3.org/2000/svg"
   xmlns="http://www.w3.org/2000/svg"
   xmlns:sodipodi="http://sodipodi.sourceforge.net/DTD/sodipodi-0.dtd"
   xmlns:inkscape="http://www.inkscape.org/namespaces/inkscape"
   width="83.602013"
   height="39.305"
   viewBox="0 0 83.602013 39.305"
   version="1.1"
   xml:space="preserve"
   style="clip-rule:evenodd;fill-rule:evenodd;stroke-linejoin:round;stroke-miterlimit:1.41420996"
   id="svg236"
   sodipodi:docname="logo_evs_rounded.svg"
   inkscape:version="0.92.3 (2405546, 2018-03-11)"><metadata
     id="metadata242"><rdf:RDF><cc:Work
         rdf:about=""><dc:format>image/svg+xml</dc:format><dc:type
           rdf:resource="http://purl.org/dc/dcmitype/StillImage" /><dc:title></dc:title></cc:Work></rdf:RDF></metadata><defs
     id="defs240" /><sodipodi:namedview
     pagecolor="#ffffff"
     bordercolor="#666666"
     borderopacity="1"
     objecttolerance="10"
     gridtolerance="10"
     guidetolerance="10"
     inkscape:pageopacity="0"
     inkscape:pageshadow="2"
     inkscape:window-width="1920"
     inkscape:window-height="1017"
     id="namedview238"
     showgrid="false"
     fit-margin-top="0"
     fit-margin-left="0"
     fit-margin-right="0"
     fit-margin-bottom="0"
     inkscape:zoom="2.0194175"
     inkscape:cx="1.17554"
     inkscape:cy="-64.328385"
     inkscape:window-x="-8"
     inkscape:window-y="-8"
     inkscape:window-maximized="1"
     inkscape:current-layer="svg236" /><path
     d="m 20.78901,26.081 c -6.567,0 -11.888,-5.323 -11.888,-11.887 0,-6.565 5.321,-11.887 11.888,-11.887 6.562,0 11.885,5.322 11.885,11.887 0,6.564 -5.323,11.887 -11.885,11.887 z m 0,-26.081 C 12.94901,0 6.594,6.356 6.594,14.194 c 0,7.837 6.35501,14.193 14.19501,14.193 7.837,0 14.192,-6.356 14.192,-14.193 C 34.98101,6.356 28.62601,0 20.78901,0 Z"
     style="fill:#ec008c"
     id="path216"
     inkscape:connector-curvature="0" /><path
     d="m 52.72301,14.195 v -10e-4 h -1.006 c 0,8.542 -3.462,16.275 -9.06,21.873 0.263,0.262 0.501,0.502 0.711,0.711 5.779,-5.779 9.355,-13.762 9.355,-22.583 z"
     style="fill:#231f20"
     id="path218"
     inkscape:connector-curvature="0" /><path
     d="m 46.33101,14.194 c 0,11.169 -7.174,20.658 -17.161,24.129 l 0.34,0.982 c 10.395,-3.611 17.86,-13.486 17.86,-25.11 v -10e-4 z"
     style="fill:#231f20"
     id="path220"
     inkscape:connector-curvature="0" /><path
     d="m 39.44301,14.194 c 0,10.302 -8.353,18.658 -18.654,18.658 C 10.48301,32.852 2.131,24.496 2.131,14.194 H 0 c 0,11.482 9.30601,20.789 20.78901,20.789 11.479,0 20.788,-9.307 20.788,-20.789 z"
     style="fill:#ec008c"
     id="path222"
     inkscape:connector-curvature="0" /><path
     d="m 62.69401,19.41 c -0.394,0 -0.789,-0.039 -1.185,-0.039 -1.008,0 -3.498,0.158 -3.498,1.936 0,1.066 1.028,1.64 1.877,1.64 1.838,0 2.806,-1.146 2.806,-2.648 z m -5.514,-4.566 c 0.93,-0.553 2.036,-0.947 3.321,-0.947 2.885,0 4.05,1.423 4.05,4.168 v 4.171 c 0,1.147 0.04,1.68 0.08,1.977 h -1.739 v -1.305 h -0.038 c -0.436,0.612 -1.424,1.541 -3.124,1.541 -2.173,0 -3.696,-0.949 -3.696,-3.142 0,-2.53 2.768,-3.321 4.684,-3.321 0.731,0 1.246,0 1.976,0.041 0,-1.74 -0.631,-2.628 -2.488,-2.628 -1.048,0 -2.175,0.394 -2.926,1.027 z"
     style="fill:#ec008c;fill-rule:nonzero"
     id="path224"
     inkscape:connector-curvature="0" /><path
     d="m 66.80401,22.236 c 0.731,0.473 1.779,0.711 2.313,0.711 0.849,0 1.897,-0.355 1.897,-1.443 0,-1.838 -4.369,-1.68 -4.369,-4.506 0,-2.094 1.563,-3.101 3.558,-3.101 0.87,0 1.581,0.177 2.313,0.394 l -0.158,1.621 c -0.416,-0.258 -1.523,-0.513 -1.958,-0.513 -0.948,0 -1.777,0.394 -1.777,1.226 0,2.055 4.367,1.461 4.367,4.682 0,2.154 -1.719,3.142 -3.518,3.142 -0.949,0 -1.917,-0.097 -2.768,-0.552 z"
     style="fill:#ec008c;fill-rule:nonzero"
     id="path226"
     inkscape:connector-curvature="0" /><path
     d="m 81.62501,18.203 c 0,-1.541 -0.909,-2.804 -2.51,-2.804 -1.82,0 -2.571,1.502 -2.707,2.804 z m 1.206,5.594 c -0.711,0.258 -1.522,0.652 -3.183,0.652 -3.576,0 -5.217,-2.173 -5.217,-5.455 0,-2.984 1.878,-5.097 4.724,-5.097 3.359,0 4.447,2.449 4.447,5.691 h -7.194 c 0,1.996 1.561,3.359 3.319,3.359 1.227,0 2.649,-0.632 3.104,-1.007 z"
     style="fill:#ec008c;fill-rule:nonzero"
     id="path228"
     inkscape:connector-curvature="0" /><path
     d="m 46.06901,4.635 c 0,-1.543 -0.909,-2.807 -2.51,-2.807 -1.818,0 -2.57,1.502 -2.708,2.807 z m 1.205,5.594 c -0.711,0.256 -1.522,0.65 -3.181,0.65 -3.578,0 -5.218,-2.172 -5.218,-5.453 0,-2.986 1.877,-5.1 4.724,-5.1 3.36,0 4.446,2.452 4.446,5.692 h -7.194 c 0,1.996 1.562,3.359 3.32,3.359 1.226,0 2.649,-0.633 3.103,-1.006 z"
     style="fill:#231f20;fill-rule:nonzero"
     id="path230"
     inkscape:connector-curvature="0" /><path
     d="m 54.86201,10.643 h -2.213 l -3.616,-10.078 h 2.034 l 2.728,8.22 h 0.04 l 2.786,-8.22 h 1.857 z"
     style="fill:#231f20;fill-rule:nonzero"
     id="path232"
     inkscape:connector-curvature="0" /><path
     d="m 59.38501,8.666 c 0.732,0.475 1.78,0.711 2.314,0.711 0.849,0 1.897,-0.355 1.897,-1.441 0,-1.838 -4.369,-1.68 -4.369,-4.506 0,-2.096 1.563,-3.104 3.558,-3.104 0.87,0 1.581,0.178 2.313,0.395 l -0.16,1.621 c -0.414,-0.258 -1.52,-0.514 -1.956,-0.514 -0.948,0 -1.777,0.395 -1.777,1.227 0,2.055 4.367,1.461 4.367,4.682 0,2.154 -1.719,3.142 -3.518,3.142 -0.948,0 -1.918,-0.098 -2.768,-0.553 z"
     style="fill:#231f20;fill-rule:nonzero"
     id="path234"
     inkscape:connector-curvature="0" /></svg>